<svg xmlns="http://www.w3.org/2000/svg" xmlns:xlink="http://www.w3.org/1999/xlink" viewBox="0 0 660.77 122.33"><defs><style>.cls-1{fill:url(#Gradiente_sem_nome_19);}.cls-2{fill:url(#Gradiente_sem_nome_19-2);}.cls-3{fill:url(#Gradiente_sem_nome_67);}.cls-4{fill:url(#Gradiente_sem_nome_67-2);}.cls-5{fill:url(#Gradiente_sem_nome_67-3);}.cls-6{fill:#14365a;}.cls-7{fill:url(#Gradiente_sem_nome_19-3);}.cls-8{fill:url(#Gradiente_sem_nome_19-4);}.cls-9{fill:url(#Gradiente_sem_nome_19-5);}.cls-10{fill:url(#Gradiente_sem_nome_19-6);}.cls-11{fill:url(#Gradiente_sem_nome_19-7);}.cls-12{fill:url(#Gradiente_sem_nome_19-8);}.cls-13{fill:url(#Gradiente_sem_nome_19-9);}.cls-14{fill:#1e1e1e;}</style><linearGradient id="Gradiente_sem_nome_19" x1="34.86" y1="131.23" x2="90.7" y2="-17.94" gradientUnits="userSpaceOnUse"><stop offset="0" stop-color="#14365a"/><stop offset="0.14" stop-color="#124b7b"/><stop offset="0.3" stop-color="#0f609b"/><stop offset="0.43" stop-color="#0e6daf"/><stop offset="0.52" stop-color="#0d72b6"/><stop offset="0.62" stop-color="#1086c6"/><stop offset="0.74" stop-color="#1399d5"/><stop offset="0.87" stop-color="#15a4de"/><stop offset="1" stop-color="#16a8e1"/></linearGradient><linearGradient id="Gradiente_sem_nome_19-2" x1="52.85" y1="86.65" x2="66.02" y2="8.88" xlink:href="#Gradiente_sem_nome_19"/><linearGradient id="Gradiente_sem_nome_67" x1="106.98" y1="101.53" x2="107.07" y2="101.65" gradientUnits="userSpaceOnUse"><stop offset="0" stop-color="#14365a"/><stop offset="0.27" stop-color="#14385d"/><stop offset="0.47" stop-color="#133e66"/><stop offset="0.64" stop-color="#124876"/><stop offset="0.8" stop-color="#10578c"/><stop offset="0.94" stop-color="#0e69a8"/><stop offset="1" stop-color="#0d72b6"/></linearGradient><linearGradient id="Gradiente_sem_nome_67-2" x1="44.92" y1="-7.13" x2="119.85" y2="92.05" xlink:href="#Gradiente_sem_nome_67"/><linearGradient id="Gradiente_sem_nome_67-3" x1="2.61" y1="30.11" x2="76.98" y2="128.56" xlink:href="#Gradiente_sem_nome_67"/><linearGradient id="Gradiente_sem_nome_19-3" x1="311.65" y1="46.42" x2="693.34" y2="55.99" xlink:href="#Gradiente_sem_nome_19"/><linearGradient id="Gradiente_sem_nome_19-4" x1="311.68" y1="45.02" x2="693.38" y2="54.59" xlink:href="#Gradiente_sem_nome_19"/><linearGradient id="Gradiente_sem_nome_19-5" x1="311.7" y1="44.15" x2="693.4" y2="53.72" xlink:href="#Gradiente_sem_nome_19"/><linearGradient id="Gradiente_sem_nome_19-6" x1="311.74" y1="42.86" x2="693.43" y2="52.43" xlink:href="#Gradiente_sem_nome_19"/><linearGradient id="Gradiente_sem_nome_19-7" x1="311.76" y1="41.95" x2="693.46" y2="51.53" xlink:href="#Gradiente_sem_nome_19"/><linearGradient id="Gradiente_sem_nome_19-8" x1="311.79" y1="40.81" x2="693.48" y2="50.38" xlink:href="#Gradiente_sem_nome_19"/><linearGradient id="Gradiente_sem_nome_19-9" x1="311.83" y1="39.29" x2="693.52" y2="48.87" xlink:href="#Gradiente_sem_nome_19"/></defs><g id="Camada_2" data-name="Camada 2"><g id="Camada_1-2" data-name="Camada 1"><path class="cls-1" d="M99.8,69.77l10.17,0-.08-17.51-9.82,0a38.55,38.55,0,0,0-5.35-13.06l6.65-6.7L88.83,20.17l-6.65,6.64a40.81,40.81,0,0,0-8.7-4V42.93a19.17,19.17,0,0,1,2.77,2.28A21.44,21.44,0,0,1,61.61,81.85a21.55,21.55,0,0,1-15.69-6.21,21,21,0,0,1-4.29-6,21.15,21.15,0,0,1,4.16-24.29,21.56,21.56,0,0,1,3.05-2.56v-20a39,39,0,0,0-9.66,4.54L32.3,20.5,19.91,33,27,39.92A39.59,39.59,0,0,0,22,52.6l-9.82,0,.08,17.52H22.44a39.6,39.6,0,0,0,5,11.56L20,89.17l12.54,12.31L40,94a39.68,39.68,0,0,0,12.46,5l0,10L70.08,109l0-10a39.78,39.78,0,0,0,12-4.85l7.28,7.18,12.39-12.42-7.13-7A38.63,38.63,0,0,0,99.8,69.77ZM90.65,85.84,93.8,89l-4.53,4.54-3.34-3.3-3.1-3.06-3.72,2.28a33.85,33.85,0,0,1-10.29,4.17l-4.36,1V99l0,4.4-6.5,0,0-4.4V94.59l-4.38-.94A34.19,34.19,0,0,1,42.87,89.3L39.1,87,36,90.12l-3.47,3.51-4.59-4.5,3.46-3.48,3.15-3.15-2.4-3.77a34.57,34.57,0,0,1-4.32-9.94L26.75,64.6H17.8l0-6.41,4.26,0h4.53l.9-4.45a33.72,33.72,0,0,1,4.28-10.89L34,39l-3.15-3.1-3.08-3,4.53-4.55,2.93,2.89,3.17,3.14L42.2,32c.79-.5,1.57-1,2.36-1.4l.2,8.32A26.79,26.79,0,0,0,36.6,72,26.43,26.43,0,0,0,42,79.6,27,27,0,1,0,80.18,41.27c-.5-.5-1-1-1.55-1.42l-.22-8.8c.29.17.58.33.86.51L83,33.84l3.1-3.09L88.87,28l4.6,4.53-2.7,2.72-3.15,3.18,2.43,3.75a33.11,33.11,0,0,1,4.57,11.2l.92,4.45,4.55,0h4.26l0,6.39-4.61,0-4.35,0-1,4.23a33.51,33.51,0,0,1-4.5,10.37l-2.49,3.81Z"/><path class="cls-2" d="M67.89,19.1V56a6.73,6.73,0,1,1-13.45,0V19.1a6.73,6.73,0,1,1,13.45,0Z"/><path class="cls-3" d="M107.37,101.24l-.65.75h0C106.94,101.74,107.16,101.49,107.37,101.24Z"/><path class="cls-4" d="M122.32,61.15c0,.48,0,1,0,1.45a61.83,61.83,0,0,1-14.43,38c-.16.2-.32.4-.5.6s-.43.5-.66.74l-3.55-3.56a58.17,58.17,0,0,0,14-37.27,56,56,0,0,0-56-56,56.71,56.71,0,0,0-26.21,6.46l2.28,2.28-15,3.52,6.36-12.2,2.61,2.61a74.24,74.24,0,0,1,9.64-4.38c.76-.27,1.52-.53,2.3-.77.38-.12.75-.23,1.13-.33l1.15-.33.82-.21q2.14-.54,4.38-.93L51.85.7c.5-.08,1-.15,1.52-.21s.94-.12,1.41-.16c.25,0,.49-.06.73-.07l1-.09L57.73.09l.6,0C59.27,0,60.21,0,61.16,0a61.13,61.13,0,0,1,61.16,61.15Z"/><path class="cls-5" d="M100.31,104.42l-6.18,11.2-1.71-1.86-.27.14,0,0-.32.18a80.24,80.24,0,0,1-8.43,4.05l-.74.28-1.31.49-1.19.4-1.2.38-1.22.36c-.8.23-1.62.44-2.44.63l-1,.23c-.33.08-.65.15-1,.21l-1,.19-.74.14-1.26.2c-.85.13-1.71.23-2.57.33l-.6.05c-.41,0-.83.08-1.24.11l-1.21.08c-.18,0-.37,0-.55,0h0c-.43,0-.88,0-1.32,0l-1.55,0h0a61.83,61.83,0,0,1-12.33-1.24l-1.59-.35c-.45-.1-.91-.22-1.37-.34s-1-.25-1.46-.39-1.27-.37-1.9-.58l-1-.32c-.95-.32-1.88-.65-2.81-1-.47-.19-.92-.37-1.38-.57l-.94-.41c-.29-.12-.57-.25-.85-.39s-.61-.28-.92-.43l-1.33-.65-1.3-.7c-.43-.22-.85-.47-1.27-.71s-.87-.5-1.29-.76-.85-.51-1.26-.78-.82-.53-1.23-.81-.81-.55-1.21-.84-.79-.57-1.19-.87-.73-.55-1.09-.84l-.14-.1c-.3-.24-.59-.47-.88-.72-.13-.1-.27-.21-.39-.32-.31-.25-.62-.52-.92-.78s-.75-.64-1.11-1l-1.07-1-1.05-1c-.7-.7-1.37-1.4-2-2.13s-1.3-1.46-1.92-2.21h0c-.63-.75-1.23-1.52-1.82-2.3h0q-.88-1.17-1.71-2.4c-.29-.42-.56-.84-.83-1.27s-.51-.8-.76-1.21L8.1,91.61h0c-.49-.85-1-1.71-1.41-2.59h0c-.22-.44-.45-.88-.66-1.32l-.62-1.32C5.2,85.9,5,85.44,4.8,85h0c-.19-.47-.38-.93-.56-1.39s-.36-.93-.53-1.4-.34-.93-.5-1.41-.31-1-.46-1.43c-.3-1-.57-1.91-.83-2.89h0L1.56,75c-.22-1-.43-2-.61-3-.08-.5-.17-1-.25-1.51-.15-1-.28-2-.38-3a.2.2,0,0,1,0-.1L.18,65.86c0-.52-.07-1-.1-1.56s0-1-.06-1.57,0-1.06,0-1.58,0-1,0-1.45l0-1.36v0A62.67,62.67,0,0,1,14.88,21.2c.23-.27.46-.55.7-.81l.18-.21,3.71,3.62A57.34,57.34,0,0,0,5.21,61.15a56,56,0,0,0,55.94,56A58,58,0,0,0,88.61,110l-2.38-2.38Z"/><path class="cls-6" d="M184.72,70.08l-3.29-6.95H162.86l4.51-9.65h9.55L170.17,39,155.68,70.08H143.92l20.22-41.82c1.09-2.22,2.68-3.33,4.75-3.33h2.43c2.07,0,3.66,1.11,4.75,3.33l20.22,41.82Z"/><path class="cls-6" d="M204.87,70.08V36.53H190.32V24.93h39.76v11.6H215.53V70.08Z"/><path class="cls-6" d="M252.85,70.08a21.23,21.23,0,0,1-8.41-1.63,19.41,19.41,0,0,1-6.6-4.59,21.2,21.2,0,0,1-4.35-7.12,25.75,25.75,0,0,1-1.59-9.24,25.41,25.41,0,0,1,1.59-9.2,21.6,21.6,0,0,1,4.35-7.12,19.21,19.21,0,0,1,6.6-4.62,21.23,21.23,0,0,1,8.41-1.63h5.72a21,21,0,0,1,8.34,1.63,19.16,19.16,0,0,1,6.61,4.62,21.94,21.94,0,0,1,4.35,7.12,25.63,25.63,0,0,1,1.58,9.2,26,26,0,0,1-1.58,9.24,21.52,21.52,0,0,1-4.35,7.12,19.35,19.35,0,0,1-6.61,4.59,21,21,0,0,1-8.34,1.63Zm6.45-11.67a9.27,9.27,0,0,0,3.84-.8,9,9,0,0,0,3-2.22,10.11,10.11,0,0,0,2-3.44,14.46,14.46,0,0,0,0-8.89,10.5,10.5,0,0,0-2-3.48,9,9,0,0,0-3-2.26,9.26,9.26,0,0,0-3.84-.79h-7.18a9.23,9.23,0,0,0-3.84.79,8.93,8.93,0,0,0-3,2.26,10.56,10.56,0,0,0-2,3.48,12.84,12.84,0,0,0-.73,4.44,13.4,13.4,0,0,0,.7,4.45,9.93,9.93,0,0,0,2,3.44,9.08,9.08,0,0,0,3.05,2.22,9.38,9.38,0,0,0,3.9.8Z"/><path class="cls-6" d="M321.71,70.08a5.53,5.53,0,0,1-3.35-.9,14.66,14.66,0,0,1-2.74-2.92l-20.4-25.15v29H284.87v-40c0-3.43,1.65-5.14,4.93-5.14h2.56a9.64,9.64,0,0,1,2.13.2,5.83,5.83,0,0,1,1.64.63,6.44,6.44,0,0,1,1.37,1,14.89,14.89,0,0,1,1.31,1.46l18.7,23V24.93h10.28v40.5q0,4.65-4,4.65Z"/><path class="cls-7" d="M333.75,70.08V58.41H363.2a2.44,2.44,0,0,0,1.88-.8,3.26,3.26,0,0,0,.72-2.26,3.4,3.4,0,0,0-.72-2.29,2.37,2.37,0,0,0-1.88-.83H345.87a12.63,12.63,0,0,1-5.06-1,11.93,11.93,0,0,1-4-2.78,12.49,12.49,0,0,1-2.6-4.27,15.63,15.63,0,0,1-.94-5.56,15.88,15.88,0,0,1,.94-5.59,12.81,12.81,0,0,1,2.6-4.34,11.26,11.26,0,0,1,4-2.78,13,13,0,0,1,5.06-1H375.8v11.6H346.35a2.36,2.36,0,0,0-1.84.76,3.16,3.16,0,0,0-.7,2.22,3.35,3.35,0,0,0,.7,2.23,2.29,2.29,0,0,0,1.84.83h17.33a12.65,12.65,0,0,1,5.1,1,12.09,12.09,0,0,1,4,2.81,12.58,12.58,0,0,1,2.64,4.34,15.72,15.72,0,0,1,.94,5.52,16.13,16.13,0,0,1-.94,5.67,13.05,13.05,0,0,1-2.64,4.38,11.53,11.53,0,0,1-4,2.81,13,13,0,0,1-5.1,1Z"/><path class="cls-8" d="M396.28,70.08V54.17l-18-29.24h12.42l11.15,18,11.21-18h11.87l-18,29.24V70.08Z"/><path class="cls-9" d="M424.28,70.08V58.41h29.45a2.42,2.42,0,0,0,1.87-.8,3.22,3.22,0,0,0,.73-2.26,3.35,3.35,0,0,0-.73-2.29,2.35,2.35,0,0,0-1.87-.83H436.4a12.63,12.63,0,0,1-5.06-1,11.83,11.83,0,0,1-4-2.78,12.51,12.51,0,0,1-2.61-4.27,15.86,15.86,0,0,1-.94-5.56,16.11,16.11,0,0,1,.94-5.59,12.83,12.83,0,0,1,2.61-4.34,11.17,11.17,0,0,1,4-2.78,13,13,0,0,1,5.06-1h29.93v11.6H436.88a2.38,2.38,0,0,0-1.85.76,3.21,3.21,0,0,0-.69,2.22,3.4,3.4,0,0,0,.69,2.23,2.31,2.31,0,0,0,1.85.83h17.33a12.57,12.57,0,0,1,5.09,1,12.13,12.13,0,0,1,4,2.81,12.74,12.74,0,0,1,2.64,4.34,16,16,0,0,1,.93,5.52,16.37,16.37,0,0,1-.93,5.67,13.22,13.22,0,0,1-2.64,4.38,11.57,11.57,0,0,1-4,2.81,12.9,12.9,0,0,1-5.09,1Z"/><path class="cls-10" d="M484.45,70.08V36.53H470V24.93h39.56v11.6H495.05V70.08Z"/><path class="cls-11" d="M514.08,70.08V24.93h37.81v11.6H524.68V58.41H552V70.08ZM528.2,52.23V42.57h23.26v9.66Z"/><path class="cls-12" d="M604.54,70.08l-5.81-29-6.85,24.73c-.73,2.88-2.38,4.31-5,4.31H583.7c-2.59,0-4.24-1.43-5-4.31l-6.85-25.21-5.81,29.52H555.58l8-40a6.65,6.65,0,0,1,1.82-4,5,5,0,0,1,3.33-1.14h4.42c2.59,0,4.27,1.45,5,4.37l7.16,27,7.08-27c.77-2.92,2.43-4.37,5-4.37h4.43a5,5,0,0,1,3.33,1.14,6.9,6.9,0,0,1,1.88,4l8.06,40Z"/><path class="cls-13" d="M618.18,70.08V58.41h29.44a2.43,2.43,0,0,0,1.88-.8,3.22,3.22,0,0,0,.73-2.26,3.35,3.35,0,0,0-.73-2.29,2.35,2.35,0,0,0-1.88-.83H630.29a12.62,12.62,0,0,1-5-1,11.83,11.83,0,0,1-4-2.78,12.51,12.51,0,0,1-2.61-4.27,15.63,15.63,0,0,1-.94-5.56,15.88,15.88,0,0,1,.94-5.59,12.83,12.83,0,0,1,2.61-4.34,11.17,11.17,0,0,1,4-2.78,13,13,0,0,1,5-1h29.94v11.6H630.78a2.37,2.37,0,0,0-1.85.76,3.21,3.21,0,0,0-.69,2.22,3.4,3.4,0,0,0,.69,2.23,2.3,2.3,0,0,0,1.85.83h17.33a12.6,12.6,0,0,1,5.09,1,12.13,12.13,0,0,1,4,2.81,12.56,12.56,0,0,1,2.63,4.34,15.72,15.72,0,0,1,.94,5.52,16.13,16.13,0,0,1-.94,5.67,13,13,0,0,1-2.63,4.38,11.57,11.57,0,0,1-4,2.81,12.94,12.94,0,0,1-5.09,1Z"/><path class="cls-14" d="M158,89.29c0,5-2.67,8.12-7,8.12s-7.07-3.15-7.07-8.12,2.72-8.12,7.07-8.12S158,84.31,158,89.29Zm-12.6,0c0,4.1,2.1,6.75,5.55,6.75s5.54-2.65,5.54-6.75-2.14-6.74-5.54-6.74S145.44,85.16,145.44,89.29Z"/><path class="cls-14" d="M175.57,89.3c0-5,2.63-8.13,6.86-8.13a6.06,6.06,0,0,1,6.22,5.09h-1.5a4.7,4.7,0,0,0-4.72-3.71c-3.26,0-5.35,2.62-5.35,6.75S179.15,96,182.44,96a4.5,4.5,0,0,0,4.71-3.4h1.5c-.44,2.87-2.91,4.77-6.21,4.77C178.2,97.41,175.57,94.3,175.57,89.3Z"/><path class="cls-14" d="M209.79,89.29c0,5-2.66,8.12-7,8.12s-7.06-3.15-7.06-8.12,2.71-8.12,7.06-8.12S209.79,84.31,209.79,89.29Zm-12.6,0c0,4.1,2.11,6.75,5.55,6.75s5.54-2.65,5.54-6.75-2.14-6.74-5.54-6.74S197.19,85.16,197.19,89.29Z"/><path class="cls-14" d="M231.2,97.08V84.37h-.11l-5.38,12.71h-1.28l-5.38-12.71H219V97.08h-1.39V81.5h1.69L225,95.14h.13l5.73-13.64h1.71V97.08Z"/><path class="cls-14" d="M241,97.08V81.5h5.61c2.87,0,4.63,1.48,4.63,3.85a3.43,3.43,0,0,1-2.85,3.43v.14A3.79,3.79,0,0,1,252,92.77c0,2.71-1.93,4.31-5.31,4.31Zm1.48-8.71h3.49c2.41,0,3.78-1,3.78-2.79s-1.29-2.77-3.42-2.77h-3.85Zm4,7.41c2.62,0,4-1.08,4-3.08s-1.48-3-4.19-3h-3.86v6.13Z"/><path class="cls-14" d="M261.07,91.59a4.56,4.56,0,0,0,9.11,0V81.5h1.48V91.68c0,3.38-2.31,5.68-6,5.68s-6-2.3-6-5.68V81.5h1.47Z"/><path class="cls-14" d="M280.77,93c.21,1.8,2,3,4.37,3s4-1.31,4-3c0-1.47-1.07-2.42-3.47-3l-1.78-.45c-2.93-.73-4.16-2-4.16-4.06,0-2.52,2.17-4.33,5.33-4.33,3,0,5.18,1.77,5.35,4.14h-1.49c-.24-1.66-1.74-2.78-3.9-2.78s-3.78,1.23-3.78,2.92c0,1.36,1,2.15,3.34,2.74l1.54.39c3.22.8,4.54,2.08,4.54,4.28,0,2.72-2.24,4.55-5.65,4.55-3.22,0-5.54-1.77-5.73-4.38Z"/><path class="cls-14" d="M302.48,97.08V82.84h-5.22V81.5h11.92v1.34H304V97.08Z"/><path class="cls-14" d="M316.53,97.08V81.5H318V97.08Zm.15-17,2-3.21h1.77L318,80.06Z"/><path class="cls-14" d="M331,97.08,325.21,81.5h1.56l4.93,13.65h.14l4.94-13.65h1.55l-5.82,15.58Z"/><path class="cls-14" d="M354.94,97.08h-9.41V81.5h9.41v1.34H347v5.6h7.54v1.32H347v6h7.94Z"/><path class="cls-14" d="M372.13,97.08h-9.28V81.5h1.48V95.74h7.8Z"/><path class="cls-14" d="M395.49,81.5a4.86,4.86,0,1,1,0,9.71h-4v5.87H390V81.5Zm-4.06,8.39h3.7c2.4,0,3.84-1.32,3.84-3.51s-1.41-3.56-3.84-3.56h-3.7Z"/><path class="cls-14" d="M415.55,92.31H409l-1.72,4.77h-1.57l5.83-15.58H413l5.82,15.58h-1.56ZM409.45,91h5.65l-2.76-7.6h-.14Z"/><path class="cls-14" d="M427.5,97.08H426V81.5h5.59c3,0,5,1.78,5,4.56a4.32,4.32,0,0,1-3.33,4.4L437,97.08H435.3l-3.59-6.38H427.5Zm0-7.7h4c2.25,0,3.58-1.19,3.58-3.28s-1.38-3.28-3.65-3.28H427.5Z"/><path class="cls-14" d="M453.2,92.31h-6.55l-1.72,4.77h-1.57l5.83-15.58h1.47l5.82,15.58h-1.55ZM447.1,91h5.66L450,83.43h-.14Z"/><path class="cls-14" d="M487.55,89.29c0,5-2.66,8.12-7.05,8.12s-7.06-3.15-7.06-8.12,2.71-8.12,7.06-8.12S487.55,84.31,487.55,89.29Zm-12.6,0c0,4.1,2.11,6.75,5.55,6.75S486,93.39,486,89.29s-2.14-6.74-5.54-6.74S475,85.16,475,89.29Z"/><path class="cls-14" d="M506.44,93c.21,1.8,2,3,4.37,3s4-1.31,4-3c0-1.47-1.07-2.42-3.47-3l-1.79-.45c-2.92-.73-4.15-2-4.15-4.06,0-2.52,2.17-4.33,5.33-4.33,3,0,5.18,1.77,5.35,4.14h-1.49c-.24-1.66-1.74-2.78-3.9-2.78s-3.78,1.23-3.78,2.92c0,1.36,1,2.15,3.34,2.74l1.54.39c3.22.8,4.53,2.08,4.53,4.28,0,2.72-2.23,4.55-5.64,4.55-3.22,0-5.54-1.77-5.73-4.38Z"/><path class="cls-14" d="M533.39,97.08H524V81.5h9.42v1.34h-7.94v5.6H533v1.32h-7.54v6h7.94Z"/><path class="cls-14" d="M542.76,91.59a4.56,4.56,0,0,0,9.11,0V81.5h1.48V91.68c0,3.38-2.31,5.68-6,5.68s-6-2.3-6-5.68V81.5h1.47Z"/><path class="cls-14" d="M577.67,81.5a4.86,4.86,0,1,1,0,9.71h-4v5.87h-1.48V81.5Zm-4.07,8.39h3.71c2.4,0,3.84-1.32,3.84-3.51s-1.41-3.56-3.84-3.56H573.6Z"/><path class="cls-14" d="M603.75,89.29c0,5-2.67,8.12-7,8.12s-7.07-3.15-7.07-8.12,2.71-8.12,7.07-8.12S603.75,84.31,603.75,89.29Zm-12.61,0c0,4.1,2.11,6.75,5.56,6.75s5.54-2.65,5.54-6.75-2.14-6.74-5.54-6.74S591.14,85.16,591.14,89.29Z"/><path class="cls-14" d="M612.24,93c.21,1.8,2,3,4.37,3s4-1.31,4-3c0-1.47-1.06-2.42-3.47-3l-1.78-.45c-2.93-.73-4.16-2-4.16-4.06,0-2.52,2.17-4.33,5.33-4.33,3,0,5.19,1.77,5.35,4.14h-1.49c-.24-1.66-1.74-2.78-3.9-2.78s-3.78,1.23-3.78,2.92c0,1.36,1,2.15,3.34,2.74l1.54.39c3.22.8,4.54,2.08,4.54,4.28,0,2.72-2.24,4.55-5.65,4.55-3.22,0-5.54-1.77-5.73-4.38Z"/><path class="cls-14" d="M634,97.08V82.84h-5.23V81.5h11.92v1.34h-5.23V97.08Z"/><path class="cls-14" d="M660.77,89.29c0,5-2.66,8.12-7,8.12s-7.06-3.15-7.06-8.12,2.71-8.12,7.06-8.12S660.77,84.31,660.77,89.29Zm-12.6,0c0,4.1,2.11,6.75,5.55,6.75s5.54-2.65,5.54-6.75-2.14-6.74-5.54-6.74S648.17,85.16,648.17,89.29Z"/></g></g></svg>