<svg width="290" height="272" viewBox="0 0 290 272" fill="none" xmlns="http://www.w3.org/2000/svg">
<path d="M145 248.536C126.731 248.584 108.692 244.72 92.2684 237.239C86.2575 234.505 80.4984 231.313 75.0497 227.693L73.3942 226.563C58.4087 216.222 46.1569 202.808 37.5792 187.351C28.7069 171.353 24.1052 153.586 24.1661 135.565C24.1661 73.173 78.2657 22.5942 145 22.5942C211.734 22.5942 265.834 73.173 265.834 135.565C265.894 153.577 261.297 171.336 252.433 187.328C243.867 202.776 231.633 216.186 216.666 226.529C211.021 230.393 205.029 233.795 198.759 236.697L197.792 237.148C181.358 244.669 163.297 248.565 145 248.536ZM145 192.05C126.893 192.017 110.293 201.473 102.02 216.531C129.103 229.073 160.897 229.073 187.98 216.531V216.475C179.697 201.432 163.096 191.999 145 192.05ZM145 169.456C171.174 169.488 195.308 182.675 208.184 203.98L208.365 203.833L208.534 203.698L208.329 203.867L208.208 203.958C238.767 179.275 249.694 139.432 235.609 104.047C221.524 68.6623 185.396 45.1919 145.012 45.1919C104.629 45.1919 68.5004 68.6623 54.4156 104.047C40.3307 139.432 51.2576 179.275 81.8163 203.958C94.7003 182.663 118.832 169.486 145 169.456ZM145 158.159C118.306 158.159 96.6667 137.928 96.6667 112.971C96.6667 88.014 118.306 67.7825 145 67.7825C171.694 67.7825 193.333 88.014 193.333 112.971C193.333 124.956 188.241 136.449 179.177 144.924C170.113 153.398 157.819 158.159 145 158.159ZM145 90.3767C131.653 90.3767 120.833 100.492 120.833 112.971C120.833 125.449 131.653 135.565 145 135.565C158.347 135.565 169.167 125.449 169.167 112.971C169.167 100.492 158.347 90.3767 145 90.3767Z" fill="#F2F2F2"/>
</svg>
